<svg width="1507" height="515" viewBox="0 0 1507 515" fill="none" xmlns="http://www.w3.org/2000/svg">
<g filter="url(#filter0_d_1_3)">
<rect width="1499" height="507" transform="translate(4)" fill="black"/>
<path d="M371.068 268.542C371.068 266.564 371.655 265.156 372.828 264.318C374.002 263.446 375.142 263.01 376.248 263.01H382.233C385.25 263.01 387.547 264.653 389.123 267.939C390.699 271.225 394.236 272.868 399.735 272.868L417.337 273.22C423.238 273.22 426.189 271.292 426.189 267.436C426.189 264.519 422.585 262.222 415.376 260.546C412.157 259.775 408.603 259.02 404.714 258.283C400.825 257.512 396.952 256.556 393.096 255.416C389.274 254.276 385.753 252.935 382.535 251.393C379.316 249.85 376.701 247.738 374.689 245.056C372.711 242.34 371.722 239.155 371.722 235.5C371.722 228.761 374.119 223.581 378.914 219.959C383.708 216.305 391.956 214.478 403.658 214.478L416.432 214.779C423.306 214.779 429.492 216.556 434.99 220.11C440.522 223.631 443.289 228.04 443.289 233.337C443.289 235.316 442.702 236.741 441.528 237.612C440.355 238.484 439.232 238.92 438.159 238.92H432.174C429.156 238.92 426.86 237.277 425.284 233.991C423.708 230.672 420.171 229.012 414.672 229.012L399.534 228.71C393.633 228.71 390.682 230.638 390.682 234.494C390.682 236.606 392.543 238.333 396.265 239.674C400.02 241.015 404.546 242.206 409.844 243.245C415.175 244.251 420.523 245.475 425.887 246.917C431.252 248.358 435.795 250.739 439.517 254.058C443.272 257.344 445.149 261.451 445.149 266.38C445.149 273.119 442.735 278.316 437.907 281.971C433.113 285.592 424.881 287.402 413.213 287.402L397.975 287.101C391.101 287.101 384.898 285.34 379.366 281.82C373.834 278.266 371.068 273.84 371.068 268.542ZM454.454 263.815V234.997C454.454 234.092 454.739 233.354 455.309 232.784C455.912 232.181 456.65 231.879 457.521 231.879H468.787C469.659 231.879 470.38 232.181 470.95 232.784C471.553 233.354 471.855 234.092 471.855 234.997V263.815C471.855 271.862 475.04 275.885 481.411 275.885C485.602 275.885 490.111 273.471 494.939 268.643V234.997C494.939 234.092 495.224 233.354 495.794 232.784C496.398 232.181 497.136 231.879 498.007 231.879H509.223C510.128 231.879 510.866 232.181 511.436 232.784C512.039 233.354 512.341 234.092 512.341 234.997V283.932C512.341 284.804 512.039 285.542 511.436 286.145C510.866 286.715 510.128 287 509.223 287H498.007C497.136 287 496.398 286.715 495.794 286.145C495.224 285.542 494.939 284.804 494.939 283.932V280.713C489.173 285.575 483.02 288.006 476.482 288.006C469.977 288.006 464.68 286.028 460.589 282.071C456.499 278.081 454.454 271.996 454.454 263.815ZM524.763 283.932V234.997C524.763 234.092 525.048 233.354 525.618 232.784C526.222 232.181 526.959 231.879 527.831 231.879H539.097C540.002 231.879 540.74 232.181 541.31 232.784C541.88 233.354 542.165 234.092 542.165 234.997V238.166C544.579 235.819 546.942 234.025 549.256 232.784C551.603 231.51 554.419 230.873 557.705 230.873C565.517 230.873 571.435 234.092 575.458 240.529C581.695 234.058 588.082 230.84 594.62 230.873C601.192 230.873 606.372 232.851 610.161 236.808C613.983 240.73 615.894 246.816 615.894 255.064V283.932C615.894 284.837 615.609 285.575 615.039 286.145C614.469 286.715 613.731 287 612.826 287H601.611C600.706 287 599.951 286.715 599.348 286.145C598.778 285.542 598.493 284.804 598.493 283.932V255.064C598.493 247.017 595.576 243.01 589.742 243.044C586.188 243.044 582.516 245.609 578.728 250.739C578.929 252.181 579.029 253.622 579.029 255.064V283.932C579.029 284.837 578.728 285.575 578.124 286.145C577.554 286.715 576.833 287 575.961 287H564.746C563.841 287 563.086 286.715 562.483 286.145C561.913 285.542 561.628 284.804 561.628 283.932V255.064C561.628 247.017 558.711 243.01 552.877 243.044C549.155 243.044 545.584 245.441 542.165 250.236V283.932C542.165 284.837 541.863 285.575 541.259 286.145C540.689 286.715 539.968 287 539.097 287H527.831C526.926 287 526.188 286.715 525.618 286.145C525.048 285.575 524.763 284.837 524.763 283.932ZM628.266 283.932V234.997C628.266 234.092 628.551 233.354 629.121 232.784C629.725 232.181 630.462 231.879 631.334 231.879H642.6C643.505 231.879 644.243 232.181 644.812 232.784C645.382 233.354 645.667 234.092 645.667 234.997V238.166C648.082 235.819 650.445 234.025 652.759 232.784C655.106 231.51 657.922 230.873 661.208 230.873C669.02 230.873 674.938 234.092 678.961 240.529C685.198 234.058 691.585 230.84 698.123 230.873C704.695 230.873 709.875 232.851 713.664 236.808C717.486 240.73 719.397 246.816 719.397 255.064V283.932C719.397 284.837 719.112 285.575 718.542 286.145C717.972 286.715 717.234 287 716.329 287H705.114C704.208 287 703.454 286.715 702.851 286.145C702.281 285.542 701.996 284.804 701.996 283.932V255.064C701.996 247.017 699.079 243.01 693.245 243.044C689.691 243.044 686.019 245.609 682.23 250.739C682.432 252.181 682.532 253.622 682.532 255.064V283.932C682.532 284.837 682.23 285.575 681.627 286.145C681.057 286.715 680.336 287 679.464 287H668.249C667.344 287 666.589 286.715 665.986 286.145C665.416 285.542 665.131 284.804 665.131 283.932V255.064C665.131 247.017 662.214 243.01 656.38 243.044C652.658 243.044 649.087 245.441 645.667 250.236V283.932C645.667 284.837 645.366 285.575 644.762 286.145C644.192 286.715 643.471 287 642.6 287H631.334C630.429 287 629.691 286.715 629.121 286.145C628.551 285.575 628.266 284.837 628.266 283.932ZM735.29 283.379C730.864 280.294 728.651 275.936 728.651 270.303C728.651 264.67 730.864 260.345 735.29 257.327C739.749 254.31 745.482 252.801 752.49 252.801H769.137C769.137 248.878 768.315 246.145 766.672 244.603C765.029 243.061 762.146 242.29 758.022 242.29C753.931 242.29 751.048 243.312 749.372 245.357C747.729 247.369 745.7 248.375 743.286 248.375H735.792C734.887 248.375 734.133 248.09 733.529 247.52C732.959 246.917 732.674 246.179 732.674 245.307C732.674 235.684 741.811 230.873 760.084 230.873C768.064 230.873 774.468 232.667 779.296 236.254C784.124 239.808 786.538 245.324 786.538 252.801V283.932C786.538 284.837 786.253 285.575 785.683 286.145C785.113 286.715 784.375 287 783.47 287H773.764C772.858 287 772.121 286.715 771.551 286.145C770.981 285.542 770.696 284.804 770.696 283.932V282.373C765.398 286.162 759.279 288.039 752.339 288.006C745.432 288.006 739.749 286.464 735.29 283.379ZM753.697 264.217C751.35 264.217 749.489 264.787 748.114 265.927C746.773 267.067 746.103 268.542 746.103 270.353C746.103 272.164 746.807 273.656 748.215 274.829C749.623 276.003 751.618 276.589 754.2 276.589C759.363 276.589 764.342 275.081 769.137 272.063V264.217H753.697ZM837.083 244.653L829.337 244.352C824.811 244.352 820.486 246.833 816.362 251.795V283.932C816.362 284.837 816.06 285.575 815.457 286.145C814.887 286.715 814.166 287 813.294 287H802.028C801.123 287 800.385 286.715 799.815 286.145C799.245 285.575 798.96 284.837 798.96 283.932V234.997C798.96 234.092 799.245 233.354 799.815 232.784C800.419 232.181 801.157 231.879 802.028 231.879H813.294C814.199 231.879 814.937 232.181 815.507 232.784C816.077 233.354 816.362 234.092 816.362 234.997V238.166C819.782 235.684 823.068 233.857 826.219 232.684C829.404 231.477 833.562 230.873 838.692 230.873C839.597 230.873 840.335 231.175 840.905 231.778C841.508 232.348 841.81 233.069 841.81 233.941V241.585C841.81 242.491 841.508 243.228 840.905 243.798C840.335 244.368 839.597 244.653 838.692 244.653H837.083ZM859.765 292.23L866.353 293.085C871.081 293.085 874.383 289.615 876.261 282.675C870.561 282.675 865.8 280.965 861.978 277.545C858.155 274.091 854.869 267.972 852.12 259.188L844.626 234.896C844.526 234.628 844.476 234.326 844.476 233.991C844.476 233.622 844.677 233.187 845.079 232.684C845.515 232.181 846.152 231.912 846.99 231.879H857.501C858.474 231.879 859.396 232.214 860.268 232.885C861.173 233.522 861.76 234.326 862.028 235.299L868.616 256.623C870.259 261.854 871.919 265.475 873.595 267.486C875.305 269.498 877.317 270.504 879.63 270.504L889.639 235.299C889.907 234.326 890.427 233.522 891.198 232.885C892.002 232.214 892.891 231.879 893.863 231.879H904.475C905.313 231.879 905.934 232.147 906.336 232.684C906.738 233.22 906.939 233.673 906.939 234.042C906.939 234.377 906.906 234.662 906.839 234.896L893.662 281.87C891.315 290.185 888.398 296.12 884.911 299.674C881.458 303.228 876.998 305.005 871.533 305.005C866.068 305.005 862.195 304.804 859.916 304.401C857.669 303.999 856.261 303.496 855.691 302.893C855.121 302.323 854.836 301.652 854.836 300.881V295.349C854.836 294.443 855.121 293.689 855.691 293.085C856.261 292.515 856.999 292.23 857.904 292.23H859.765ZM908.951 224.385V219.658C908.951 218.283 909.404 217.143 910.309 216.238C911.214 215.333 912.354 214.88 913.729 214.88H977.551C978.925 214.88 980.065 215.333 980.971 216.238C981.876 217.143 982.329 218.283 982.329 219.658V224.385C982.329 225.76 981.876 226.9 980.971 227.805C980.065 228.677 978.925 229.113 977.551 229.113H955.12V282.373C955.12 283.681 954.651 284.787 953.712 285.692C952.807 286.564 951.7 287 950.393 287H940.887C939.58 287 938.456 286.564 937.518 285.692C936.612 284.787 936.16 283.681 936.16 282.373V229.113H913.729C912.354 229.113 911.214 228.677 910.309 227.805C909.404 226.9 908.951 225.76 908.951 224.385ZM984.391 224.385V219.658C984.391 218.283 984.843 217.143 985.749 216.238C986.654 215.333 987.794 214.88 989.168 214.88H1052.99C1054.36 214.88 1055.5 215.333 1056.41 216.238C1057.32 217.143 1057.77 218.283 1057.77 219.658V224.385C1057.77 225.76 1057.32 226.9 1056.41 227.805C1055.5 228.677 1054.36 229.113 1052.99 229.113H1030.56V282.373C1030.56 283.681 1030.09 284.787 1029.15 285.692C1028.25 286.564 1027.14 287 1025.83 287H1016.33C1015.02 287 1013.9 286.564 1012.96 285.692C1012.05 284.787 1011.6 283.681 1011.6 282.373V229.113H989.168C987.794 229.113 986.654 228.677 985.749 227.805C984.843 226.9 984.391 225.76 984.391 224.385ZM1060.89 268.542C1060.89 266.564 1061.47 265.156 1062.65 264.318C1063.82 263.446 1064.96 263.01 1066.07 263.01H1072.05C1075.07 263.01 1077.37 264.653 1078.94 267.939C1080.52 271.225 1084.05 272.868 1089.55 272.868L1107.16 273.22C1113.06 273.22 1116.01 271.292 1116.01 267.436C1116.01 264.519 1112.4 262.222 1105.19 260.546C1101.98 259.775 1098.42 259.02 1094.53 258.283C1090.64 257.512 1086.77 256.556 1082.91 255.416C1079.09 254.276 1075.57 252.935 1072.35 251.393C1069.13 249.85 1066.52 247.738 1064.51 245.056C1062.53 242.34 1061.54 239.155 1061.54 235.5C1061.54 228.761 1063.94 223.581 1068.73 219.959C1073.53 216.305 1081.77 214.478 1093.48 214.478L1106.25 214.779C1113.12 214.779 1119.31 216.556 1124.81 220.11C1130.34 223.631 1133.11 228.04 1133.11 233.337C1133.11 235.316 1132.52 236.741 1131.35 237.612C1130.17 238.484 1129.05 238.92 1127.98 238.92H1121.99C1118.97 238.92 1116.68 237.277 1115.1 233.991C1113.53 230.672 1109.99 229.012 1104.49 229.012L1089.35 228.71C1083.45 228.71 1080.5 230.638 1080.5 234.494C1080.5 236.606 1082.36 238.333 1086.08 239.674C1089.84 241.015 1094.36 242.206 1099.66 243.245C1104.99 244.251 1110.34 245.475 1115.71 246.917C1121.07 248.358 1125.61 250.739 1129.33 254.058C1133.09 257.344 1134.97 261.451 1134.97 266.38C1134.97 273.119 1132.55 278.316 1127.73 281.971C1122.93 285.592 1114.7 287.402 1103.03 287.402L1087.79 287.101C1080.92 287.101 1074.72 285.34 1069.18 281.82C1063.65 278.266 1060.89 273.84 1060.89 268.542Z" fill="white"/>
</g>
<defs>
<filter id="filter0_d_1_3" x="0" y="0" width="1507" height="515" filterUnits="userSpaceOnUse" color-interpolation-filters="sRGB">
<feFlood flood-opacity="0" result="BackgroundImageFix"/>
<feColorMatrix in="SourceAlpha" type="matrix" values="0 0 0 0 0 0 0 0 0 0 0 0 0 0 0 0 0 0 127 0" result="hardAlpha"/>
<feOffset dy="4"/>
<feGaussianBlur stdDeviation="2"/>
<feComposite in2="hardAlpha" operator="out"/>
<feColorMatrix type="matrix" values="0 0 0 0 0 0 0 0 0 0 0 0 0 0 0 0 0 0 0.25 0"/>
<feBlend mode="normal" in2="BackgroundImageFix" result="effect1_dropShadow_1_3"/>
<feBlend mode="normal" in="SourceGraphic" in2="effect1_dropShadow_1_3" result="shape"/>
</filter>
</defs>
</svg>
